<svg xmlns="http://www.w3.org/2000/svg" viewBox="0 0 550 390" role="img">
  <title>mmd2pptx mark for dark backgrounds</title>
  <desc>A flowchart enters a presentation page containing a square, circle, and triangle.</desc>
  <g fill="none" stroke="#635BFF" stroke-width="19" stroke-linecap="butt">
    <path d="M79 105V179A30 30 0 0 0 109 209H215"/>
    <path d="M79 292V271A30 30 0 0 1 109 241H215"/>
  </g>
  <path d="M205 177.66A4 4 0 0 1 211.59 174.61L255.46 214.48A4 4 0 0 1 255.49 220.55L211.62 261.25A4 4 0 0 1 205 258.23Z" fill="#635BFF"/>
  <rect x="32" y="23" width="94" height="94" rx="13" fill="#635BFF"/>
  <circle cx="79" cy="323" r="45" fill="#635BFF"/>

  <path d="M215.5 151V55A21 21 0 0 1 236.5 34H448l66.5 66.5v234A21 21 0 0 1 493.5 355.5h-257a21 21 0 0 1-21-21v-47" fill="none" stroke="#FF6A2A" stroke-width="19" stroke-linecap="butt" stroke-linejoin="round"/>
  <path d="M441.5 34v58.5a11 11 0 0 0 11 11h62" fill="none" stroke="#FF6A2A" stroke-width="19" stroke-linecap="butt" stroke-linejoin="round"/>

  <path d="M269.5 95.5H348.5A7 7 0 0 1 355.5 102.5V162.43A54.5 54.5 0 0 0 342.76 188.5H269.5A7 7 0 0 1 262.5 181.5V102.5A7 7 0 0 1 269.5 95.5Z" fill="#FF6A2A" fill-opacity=".5" transform="rotate(-15 309 142)"/>
  <circle cx="408" cy="174" r="46.5" fill="none" stroke="#FF6A2A" stroke-width="9"/>
  <path d="M317.64 227.72A6.36 6.36 0 0 1 324.65 219.12L411.19 234.4A6.36 6.36 0 0 1 415.11 244.56L361.66 313.28A6.36 6.36 0 0 1 350.72 311.71Z" fill="#FF6A2A"/>
</svg>
